/* XPM */
static char * beopardy_xpm[] = {
"128 72 8 1",
" 	c None",
".	c #000000",
"+	c #2D58D1",
"@	c #6C497A",
"#	c #674A80",
"$	c #69497D",
"%	c #6A497C",
"&	c #6B497A",
"                                                                                                                                ",
"                                                                                                                                ",
"                                                                                                                                ",
"                                                                                                                                ",
"                                                                                                                                ",
"                                                                                                                                ",
"                                                                                                                                ",
"                                                                                                                                ",
"                                                                           .                                   ++               ",
"                     ..                                                   ...                                 +++       ++      ",
"                    ....                                                 .....                                          +++     ",
"                    .....                                              .......                                @@@@@     ++      ",
"                    ......                                            ........                           #@@@@@@                ",
"                    .......                                          ..... ...                          @@@@@                   ",
"                    ... .....                                       ....   ...                         @@@@@                    ",
"                    ...  .....                                    .....    ...                        @@@@$                     ",
"                    ...   .....                                  .....     ....                       @@@@                      ",
"                   ....     ....                                .....      ....                       @@@@                      ",
"                   ....      ....                              ....         ...                       @@@@                      ",
"                   ....       ....                           .....          ...                       @@@@                      ",
"                   ...         .....                        .....           ...                        @@@                      ",
"                   ...          .....                      .....            ....                       @@@                      ",
"                   ...           .....                    ....              ....                        @@$                     ",
"                   ...             ....                 .....               ....                         %@                     ",
"                  ....              ....               .....                 ...                           @                    ",
"                  ....               ....             .....                  ...                           @@                   ",
"                  ....                .....          ....                    ...                            @@                  ",
"                  ...                  .....       .....                     ....                            @@                 ",
"                  ...                   .....     .....                      ....                             @@                ",
"                  ...                    .....   .....                        ...                              @@               ",
"                  ...                      .........                          ...                              @@@              ",
"                  ...                       .......                           ...                              @@@@             ",
"                  ..                         .....                            ...                               @@@             ",
"                                            .......                           ....                              @@@@            ",
"                                          ..........                          ....                              @@@@            ",
"                                         .....  .....                          ...                              @@@@            ",
"                                        .....     ....                         ...                              @@@@            ",
"                                       .....       ....                        ...                             &@@@             ",
"                                     .....          ....                       ....                            @@&              ",
"                                    .....            .....                     ....                                             ",
"                                   .....              .....                     ...                                             ",
"                                  ....                 .....                    ...                                             ",
"                                .....                    ....                   ...                                             ",
"                               .....                      ....                  ...                                             ",
"                              .....                        ....                 ....                                            ",
"                             ....                           .....               ....                     @                      ",
"                           .....                             .....               ...                    @@                      ",
"                          .....                               .....              ...                   @@@                      ",
"                         .....                                 .....             ...                   @@@                      ",
"                        ....                                     ....            ....                 @@@@                      ",
"                      .....                                       ....           ....                 @@@@                      ",
"                     .....                                         .....         ....                 @@@@@                     ",
"                    .....                                           .....         ...                  @@@@                     ",
"                  .....                                              .....        ...                  @@@@$                    ",
"                 .....                                                .....       ...                  @@@@@                    ",
"                 ....                                                   ....      ....                 @@@@@                    ",
"                 ...                                                     ....     ....                 $@@@@                    ",
"                                                                          ....     ...                 @@@@@                    ",
"                                                                           .....   ...                 @@@@@                    ",
"                                                                            .....  ...                 @@@@                     ",
"                                                                             ..... ....               @@@@                      ",
"                                                                               ........               @@@#                      ",
"                                                                                .......              @@@$                       ",
"                                                                                 ......             @@@@                        ",
"                                                                                  .....            @@@@                         ",
"                                                                                   ....           #@@                           ",
"                                                                                    ...     ++++      +                         ",
"                                                                                            +++     +++                         ",
"                                                                                                    +++                         ",
"                                                                                                                                ",
"                                                                                                                                ",
"                                                                                                                                "};
